<?xml version="1.0" standalone="no"?>
<!DOCTYPE svg PUBLIC "-//W3C//DTD SVG 20010904//EN"
 "http://www.w3.org/TR/2001/REC-SVG-20010904/DTD/svg10.dtd">
<svg version="1.0" xmlns="http://www.w3.org/2000/svg"
 width="700.000000pt" height="700.000000pt" viewBox="0 0 700.000000 700.000000"
 preserveAspectRatio="xMidYMid meet">
<metadata>
Created by potrace 1.11, written by Peter Selinger 2001-2013
</metadata>
<g transform="translate(0.000000,700.000000) scale(0.100000,-0.100000)"
fill="#000000" stroke="none">
<path d="M1525 6989 c-228 -43 -394 -183 -466 -394 -15 -44 -31 -100 -34 -125
-4 -25 -7 -1406 -7 -3070 0 -3291 -3 -3103 54 -3216 28 -57 104 -129 166 -157
63 -29 222 -31 300 -4 64 23 142 80 194 144 22 26 50 59 62 73 11 14 95 113
186 220 91 107 170 201 177 208 7 7 29 34 50 60 21 26 43 52 49 57 6 6 46 53
90 105 43 52 81 97 84 100 3 3 27 32 55 65 27 33 52 62 55 65 3 3 27 32 55 65
27 33 52 62 55 65 3 3 45 52 94 110 49 58 108 128 131 155 23 28 111 131 195
230 83 99 171 203 194 230 24 28 83 97 133 155 49 58 96 111 105 118 12 9 158
13 649 15 558 3 641 6 692 20 200 58 320 185 395 417 20 61 59 234 102 450 11
52 21 104 24 115 5 24 36 172 42 200 5 28 23 115 30 145 3 14 8 39 11 55 2 17
14 71 24 120 50 230 148 707 243 1185 3 14 7 36 10 50 8 37 57 281 63 310 4
23 31 150 38 180 18 77 129 635 140 705 14 89 14 339 1 398 -44 191 -152 303
-353 364 -55 16 -173 18 -2048 19 -1199 1 -2010 -2 -2040 -7z m3529 -805 c58
-30 96 -81 100 -135 2 -24 -5 -87 -16 -139 -10 -52 -20 -104 -22 -115 -6 -30
-56 -277 -61 -300 -2 -11 -20 -94 -38 -185 -38 -185 -51 -221 -96 -273 -61
-69 -29 -67 -896 -69 l-780 -3 -54 -28 c-66 -34 -92 -58 -121 -114 -19 -36
-21 -58 -22 -175 0 -73 5 -151 11 -174 13 -47 70 -118 115 -141 74 -38 105
-40 774 -42 722 -2 695 0 751 -68 58 -71 63 -132 26 -309 -14 -66 -41 -198
-60 -294 -20 -96 -37 -184 -40 -195 -2 -11 -11 -56 -20 -100 -33 -169 -53
-208 -128 -247 -42 -22 -49 -22 -632 -25 -694 -4 -666 -1 -760 -97 -33 -34
-114 -131 -181 -216 -109 -140 -392 -503 -421 -540 -26 -34 -310 -400 -333
-430 -32 -42 -145 -186 -173 -222 -12 -14 -53 -67 -92 -118 l-70 -91 -3 2348
c-1 1291 0 2367 3 2391 8 53 46 98 100 117 34 12 270 14 1570 12 1526 -2 1530
-2 1569 -23z"/>
</g>
</svg>
