<?xml version="1.0"?>
<svg xmlns="http://www.w3.org/2000/svg" xmlns:xlink="http://www.w3.org/1999/xlink" version="1.1" id="Capa_1" x="0px" y="0px" viewBox="0 0 511 511" style="enable-background:new 0 0 511 511;" xml:space="preserve"><g><path d="M503.5,451.777H311v-7.5c0-4.687-3.813-8.5-8.5-8.5H263v-41h152.5h16c4.142,0,7.5-3.357,7.5-7.5s-3.358-7.5-7.5-7.5H423  v-177h16.5c3.096,0,5.873-1.902,6.993-4.788c1.119-2.886,0.351-6.163-1.936-8.251L391,140.838V75.277c0-8.547-6.953-15.5-15.5-15.5  h-32c-8.547,0-15.5,6.953-15.5,15.5v8.039l-51.261-46.803c-12.108-11.055-30.371-11.055-42.479,0L66.443,189.738  c-2.286,2.088-3.055,5.365-1.936,8.251c1.12,2.886,3.897,4.788,6.993,4.788H88v177h-8.5c-4.142,0-7.5,3.357-7.5,7.5  s3.358,7.5,7.5,7.5h16H248v41h-39.5c-4.687,0-8.5,3.813-8.5,8.5v7.5H7.5c-4.142,0-7.5,3.357-7.5,7.5s3.358,7.5,7.5,7.5H200v7.5  c0,4.687,3.813,8.5,8.5,8.5h94c4.687,0,8.5-3.813,8.5-8.5v-7.5h192.5c4.142,0,7.5-3.357,7.5-7.5S507.642,451.777,503.5,451.777z   M296,379.777h-81v-136.5c0-0.275,0.224-0.5,0.5-0.5h80c0.276,0,0.5,0.225,0.5,0.5V379.777z M95.5,187.777h-4.663L244.375,47.592  c6.342-5.792,15.908-5.792,22.251,0l63.817,58.268c2.194,2.004,5.365,2.521,8.084,1.323c2.719-1.199,4.473-3.891,4.473-6.862V75.277  c0-0.275,0.224-0.5,0.5-0.5h32c0.276,0,0.5,0.225,0.5,0.5v68.869c0,2.107,0.887,4.117,2.443,5.539l41.72,38.092H415.5  c-4.142,0-7.5,3.357-7.5,7.5v184.5h-97v-136.5c0-8.547-6.953-15.5-15.5-15.5h-80c-8.547,0-15.5,6.953-15.5,15.5v136.5h-97v-184.5  C103,191.135,99.642,187.777,95.5,187.777z M296,467.777h-81v-17h81V467.777z" data-original="#000000" class="active-path" data-old_color="#ffffff" fill="#ffffff"/></g> </svg>
