<?xml version="1.0"?>
<svg xmlns="http://www.w3.org/2000/svg" xmlns:xlink="http://www.w3.org/1999/xlink" version="1.1" id="Layer_1" x="0px" y="0px" viewBox="0 0 290.477 290.477" style="enable-background:new 0 0 290.477 290.477;" xml:space="preserve" class=""><g><g>
	<g>
		<rect x="107.141" y="47.619" style="fill:#EFEFEF" width="76.19" height="33.333" data-original="#F9BA48" class="" data-old_color="#efefef"/>
		<path style="fill:#FFFFFF" d="M221.517,251.786c-4.743,5.929-11.638,9.486-19.138,10.01V223.81h-9.862l-8.819-119.048h9.157    v-9.524h-9.524v-9.524h9.524V76.19H97.617v9.524h9.524v9.524h-9.524v9.524h9.157L97.955,223.81h-9.862v38.095H45.236    c-10.505,0-19.048,8.543-19.048,19.048H2.379v9.524h285.714v-9.524H35.712c0-5.252,4.271-9.524,9.524-9.524H200.46    c11.143,0,21.529-4.99,28.49-13.69c5.138-6.433,12.814-10.119,21.048-10.119h38.095v-9.524h-38.095    C238.855,238.095,228.469,243.086,221.517,251.786z M156.96,104.762l-41.967,17.986l1.333-17.986H156.96z M114.203,133.448    l60.162-25.781l2.676,36.11l-65.686,28.148L114.203,133.448z M110.56,182.624l67.224-28.81l2.676,36.114l-72.748,31.176    L110.56,182.624z M181.198,199.971l1.767,23.838h-57.39L181.198,199.971z M173.807,85.714v9.524h-57.142v-9.524H173.807z     M135.712,261.905v-4.762c0-5.252,4.271-9.524,9.524-9.524s9.524,4.271,9.524,9.524v4.762H135.712z M145.236,238.095    c-10.505,0-19.048,8.543-19.048,19.048v4.762H97.617v-28.571h95.238v28.571h-28.571v-4.762    C164.284,246.638,155.741,238.095,145.236,238.095z" data-original="#333333" class="active-path" data-old_color="#ffffff"/>
		<path style="fill:#FFFFFF" d="M140.474,52.381v14.286h9.524V52.381h33.333h9.524v-9.524h-9.852    c-2.162-17.2-15.805-30.843-33.005-33.005V0h-9.524v9.852c-17.2,2.162-30.843,15.805-33.005,33.005h-9.852v9.524h9.524    C107.141,52.381,140.474,52.381,140.474,52.381z M145.236,19.048c14.133,0,25.9,10.314,28.176,23.81H117.06    C119.336,29.362,131.103,19.048,145.236,19.048z" data-original="#333333" class="active-path" data-old_color="#ffffff"/>
		
			<rect x="-0.921" y="92.857" transform="matrix(0.9247 -0.3808 0.3808 0.9247 -33.9434 23.6734)" style="fill:#FFFFFF" width="87.554" height="9.524" data-original="#333333" class="active-path" data-old_color="#ffffff"/>
		
			<rect x="38.094" y="-12.824" transform="matrix(0.3807 -0.9247 0.9247 0.3807 -2.0788 58.7961)" style="fill:#FFFFFF" width="9.524" height="87.548" data-original="#333333" class="active-path" data-old_color="#ffffff"/>
		
			<rect x="242.846" y="53.836" transform="matrix(0.3807 -0.9247 0.9247 0.3807 63.0845 289.4128)" style="fill:#FFFFFF" width="9.524" height="87.548" data-original="#333333" class="active-path" data-old_color="#ffffff"/>
		
			<rect x="203.843" y="26.193" transform="matrix(0.9247 -0.3808 0.3808 0.9247 6.8677 96.6222)" style="fill:#FFFFFF" width="87.554" height="9.524" data-original="#333333" class="active-path" data-old_color="#ffffff"/>
	</g>
</g></g> </svg>
