<?xml version="1.0"?>
<svg xmlns="http://www.w3.org/2000/svg" xmlns:xlink="http://www.w3.org/1999/xlink" version="1.1" id="Layer_1" x="0px" y="0px" viewBox="0 0 496.483 496.483" style="enable-background:new 0 0 496.483 496.483;" xml:space="preserve" class=""><g><path style="fill:#FFFFFF" d="M380.994,0h-262C83.01,0,72.242,27.08,72.242,44.44v421.016c0,20.744,10.432,26.864,16.152,29.24  c5.712,2.384,20.848,4.08,31.6-6.8c0,0,124.448-146.864,126.464-149.24c2.024-2.376,3.04-2.656,4.384-2.656h78.688  c33.64,0,40.016-23.168,43.72-37.472c3.032-11.904,37.664-181.568,48.44-235.312C429.762,21.728,419.33,0,380.994,0z   M365.522,72.152l-11.768,58.88C352.41,137.152,346.69,144,339.618,144h-102.24c-11.44,0-21.136,5.848-21.136,17.416v12.592  c0,11.56,9.696,18,21.136,18h86.44c8.072,0,14.8,9.368,13.12,17.864c-1.68,8.84-10.768,53.776-11.768,58.536  c-0.688,5.096-6.056,11.592-14.136,11.592H240.41c-14.8,0-17.832,1.424-26.568,12.296c-8.752,10.888-85.184,109.192-85.184,109.192  c-0.672,1.016-0.416,1.048-0.416,0.024V68.576c0-7.824,4.536-12.576,12.272-12.576h212.224  C360.138,56,367.538,62.632,365.522,72.152z" data-original="#F34B78" class="active-path" data-old_color="#B0B2CA"/><g>
	<polygon style="fill:#F6F1F1" points="277.098,56 331.858,0 279.858,0 225.09,56  " data-original="#FF929A" class="" data-old_color="#F4F0F0"/>
	<path style="fill:#F6F1F1" d="M236.146,280.056c-11.176,0.416-14.496,2.504-22.304,12.24c-4.024,5.008-22.592,29.2-41.464,53.064   L236.146,280.056z" data-original="#FF929A" class="" data-old_color="#F4F0F0"/>
	<path style="fill:#F6F1F1" d="M128.242,68.576c0-7.824,4.536-12.576,12.272-12.576h43.408l54.76-56h-52L72.242,113.968v52   l56-54.152V68.576z" data-original="#FF929A" class="" data-old_color="#F4F0F0"/>
	<path style="fill:#F6F1F1" d="M352.738,56c4.296,0,8.352,2.832,10.904,5.776l50.92-51.112C407.562,3.648,396.474,0,380.994,0   h-7.968l-54.752,56H352.738z" data-original="#FF929A" class="" data-old_color="#F4F0F0"/>
	<path style="fill:#F6F1F1" d="M237.378,144L237.378,144l-19.296,10c-1.84,1.504-1.84,5.136-1.84,7.416v12.592   c0,9.192,6.752,16.744,18.296,17.856L284.234,144H237.378z" data-original="#FF929A" class="" data-old_color="#F4F0F0"/>
	<path style="fill:#F6F1F1" d="M353.754,130.6c-1.344,6.12-7.064,13.4-14.136,13.4h-14.224l-54.744,48h52.008l91.168-89.632   c3.384-16.68,5.824-28.968,7.872-39.152c1.528-7.92,2.392-15.608,2.512-22.096l-66.136,67.256L353.754,130.6z" data-original="#FF929A" class="" data-old_color="#F4F0F0"/>
	<polygon style="fill:#F6F1F1" points="128.242,339.336 72.242,393.504 72.242,445.496 128.242,391.344  " data-original="#FF929A" class="" data-old_color="#F4F0F0"/>
	<path style="fill:#F6F1F1" d="M373.258,298.528c0.632-2.472,2.64-11.96,5.488-25.624L315.522,336h14.008   C363.17,336,369.554,312.832,373.258,298.528z" data-original="#FF929A" class="" data-old_color="#F4F0F0"/>
	<path style="fill:#F6F1F1" d="M145.506,0h-26.512C83.01,0,72.242,27.08,72.242,44.44V72.8L145.506,0z" data-original="#FF929A" class="" data-old_color="#F4F0F0"/>
	<polygon style="fill:#F6F1F1" points="128.242,152.992 72.242,207.144 72.242,259.152 128.242,204.992  " data-original="#FF929A" class="" data-old_color="#F4F0F0"/>
	<polygon style="fill:#F6F1F1" points="128.242,246.168 72.242,300.32 72.242,352.32 128.242,298.168  " data-original="#FF929A" class="" data-old_color="#F4F0F0"/>
	<path style="fill:#F6F1F1" d="M402.874,156.032l-68.832,68.68c-3.328,16.616-8.136,40.176-8.872,43.696   c-0.688,5.096-6.056,11.592-14.136,11.592h-33.592L75.57,482.608c3.568,7.128,9.24,10.6,12.824,12.088   c5.712,2.384,21.472,4.176,31.6-6.976c0,0,124.448-146.776,126.464-149.152c2.024-2.384,3.04-2.568,4.384-2.568h23.512   l115.144-114.856C393.746,200.456,398.386,178.04,402.874,156.032z" data-original="#FF929A" class="" data-old_color="#F4F0F0"/>
</g></g> </svg>
