<?xml version="1.0"?>
<svg xmlns="http://www.w3.org/2000/svg" xmlns:xlink="http://www.w3.org/1999/xlink" version="1.1" id="Capa_1" x="0px" y="0px" viewBox="0 0 512 512" style="enable-background:new 0 0 512 512;" xml:space="preserve" class=""><g><g>
	<g>
		<path d="M504.461,230.577c-4.164,0-7.539,3.375-7.539,7.539V422.3c0,10.104-8.22,18.323-18.323,18.323H99.327    c-4.163,0-7.539,3.375-7.539,7.539c0,4.163,3.375,7.539,7.539,7.539H478.6c18.417,0,33.4-14.984,33.4-33.4V238.115    C512,233.952,508.626,230.577,504.461,230.577z" data-original="#000000" class="active-path" data-old_color="#ffffff" fill="#ffffff"/>
	</g>
</g><g>
	<g>
		<path d="M478.6,56.3H33.401C14.984,56.3,0,71.284,0,89.701V422.3c0,18.417,14.984,33.4,33.401,33.4h35.771    c4.163,0,7.539-3.375,7.539-7.539c0-4.163-3.375-7.539-7.539-7.539H33.401c-10.104,0-18.324-8.22-18.324-18.323V135.273h481.845    v72.687c0,4.163,3.374,7.539,7.539,7.539S512,212.123,512,207.96V89.701C512,71.284,497.017,56.3,478.6,56.3z M496.923,120.196    H15.077V89.701c0-10.104,8.22-18.324,18.324-18.324H478.6c10.104,0,18.323,8.22,18.323,18.324V120.196z" data-original="#000000" class="active-path" data-old_color="#ffffff" fill="#ffffff"/>
	</g>
</g><g>
	<g>
		<path d="M407.182,90.335h-76.913c-4.164,0-7.539,3.375-7.539,7.539s3.374,7.539,7.539,7.539h76.913    c4.164,0,7.539-3.375,7.539-7.539S411.345,90.335,407.182,90.335z" data-original="#000000" class="active-path" data-old_color="#ffffff" fill="#ffffff"/>
	</g>
</g><g>
	<g>
		<path d="M300.114,90.335H48.825c-4.163,0-7.539,3.375-7.539,7.539s3.375,7.539,7.539,7.539h251.288    c4.164,0,7.539-3.375,7.539-7.539S304.278,90.335,300.114,90.335z" data-original="#000000" class="active-path" data-old_color="#ffffff" fill="#ffffff"/>
	</g>
</g><g>
	<g>
		<path d="M482.499,102.482l-5.461-4.837l5.461-4.837c3.116-2.76,3.404-7.525,0.644-10.641c-2.761-3.117-7.526-3.405-10.642-0.645    l-6.834,6.053l-6.834-6.053c-3.118-2.761-7.88-2.472-10.642,0.645c-2.76,3.117-2.472,7.88,0.645,10.642l5.461,4.837l-5.461,4.837    c-5.179,4.586-1.912,13.182,5.002,13.182c4.522,0,6.142-3.452,11.83-7.949l6.834,6.053c3.129,2.772,7.891,2.459,10.642-0.645    C485.904,110.006,485.616,105.243,482.499,102.482z" data-original="#000000" class="active-path" data-old_color="#ffffff" fill="#ffffff"/>
	</g>
</g><g>
	<g>
		<path d="M430.987,225.435c-14.628-2.46-15.742-1.532-16.674-3.419l-6.689-13.556c-6.364-12.895-24.763-12.889-31.125,0    l-6.69,13.555c-0.332,0.672-0.973,1.139-1.714,1.246l-14.961,2.174c-6.585,0.957-11.953,5.482-14.01,11.811    c-2.056,6.328-0.373,13.145,4.391,17.79l10.824,10.55c0.537,0.524,0.781,1.277,0.653,2.016l-2.554,14.899    c-2.431,14.174,12.458,24.984,25.18,18.294c13.292-6.615,13.641-8.013,15.499-7.034l13.381,7.034    c12.725,6.691,27.611-4.123,25.18-18.294l-2.554-14.898c-0.356-2.076,1.089-1.977,11.48-12.568    C450.901,245,445.213,227.502,430.987,225.435z M430.079,244.238l-10.825,10.552c-4.091,3.986-5.958,9.729-4.992,15.361    l2.555,14.899c0.197,1.153-0.384,1.848-0.906,2.227c-0.524,0.379-1.365,0.717-2.398,0.173l-13.381-7.035    c-5.056-2.658-11.094-2.658-16.152,0l-13.381,7.035c-1.683,0.882-3.626-0.521-3.304-2.401l2.555-14.897    c0.967-5.631-0.899-11.372-4.99-15.362l-10.826-10.552c-0.835-0.815-0.774-1.719-0.574-2.333c0.199-0.614,0.68-1.381,1.836-1.55    l14.962-2.174c5.653-0.821,10.537-4.37,13.066-9.494l6.69-13.555c0.518-1.048,1.396-1.269,2.041-1.269    c0.645,0,1.524,0.22,2.042,1.268l6.689,13.556c2.529,5.122,7.414,8.671,13.068,9.493l14.96,2.174    c1.157,0.168,1.638,0.936,1.837,1.55C430.855,242.518,430.917,243.421,430.079,244.238z" data-original="#000000" class="active-path" data-old_color="#ffffff" fill="#ffffff"/>
	</g>
</g><g>
	<g>
		<path d="M488.181,369.332l-32.959-63.616c46.81-53.749,8.71-138.661-63.164-138.661c-46.177,0-83.739,37.573-83.739,83.749    c0,20.988,7.76,40.196,20.576,54.911l-32.959,63.616c-5.787,11.196,5.706,23.349,17.148,18.364l8.916-3.87    c4.496-1.954,9.68,0.705,10.695,5.548l1.98,9.499c1.312,6.299,6.707,10.624,13.117,10.624c4.945,0,9.438-2.694,11.77-7.207    l32.497-62.732l32.497,62.732c2.342,4.513,6.825,7.207,11.77,7.207c6.336,0,11.799-4.247,13.127-10.624    c1.979-6.938,0.944-12.21,6.011-14.816c5.066-2.618,8.692,1.234,15.57,3.639C482.526,392.682,493.966,380.482,488.181,369.332z     M348.434,391.003c-0.793-2.027-0.772-14.075-12.836-20.334c-6.211-3.209-13.321-3.396-19.611-0.673l-4.403,1.92l28.677-55.364    c10.826,8.564,23.822,14.494,38.005,16.856L348.434,391.003z M336.473,291.071c-8.222-11.318-13.077-25.239-13.077-40.266    c0-37.864,30.798-68.672,68.662-68.672c63.527,0,92.882,79.346,44.709,120.739C406.587,328.832,360.33,323.895,336.473,291.071z     M448.527,370.669c-12.089,6.262-12.053,18.332-12.836,20.334l-29.843-57.595c14.193-2.362,27.179-8.303,38.015-16.856    l28.677,55.364C470.549,371.424,460.599,364.405,448.527,370.669z" data-original="#000000" class="active-path" data-old_color="#ffffff" fill="#ffffff"/>
	</g>
</g><g>
	<g>
		<path d="M301.654,251.176l-19.721-51.655c-8.232-21.54-29.25-36.015-52.298-36.015c-38.381,0-93.461,0-131.916,0    c-22.968,0-43.945,14.394-52.218,35.824c-10.805,27.983-16.726,43.362-19.982,51.806c-4.654,12.092-3.156,25.782,4.011,36.608    c5.609,8.473,13.871,14.263,23.38,16.555v82.955c0.001,14.223,11.57,25.792,25.782,25.792h169.75    c14.213,0,25.782-11.569,25.782-25.792v-82.965c9.479-2.302,17.731-8.071,23.34-16.515    C304.739,276.958,306.267,263.278,301.654,251.176z M171.085,178.584h33.451c19.566,90.472,19.752,85.749,18.173,91.881    c-2.835,11.398-13.157,19.862-25.42,19.862s-22.586-8.463-25.43-19.862C170.755,266.008,171.085,271.287,171.085,178.584z     M156.008,178.584c0,93.752,0.277,87.632-0.774,91.881c-2.845,11.398-13.168,19.862-25.43,19.862s-22.586-8.463-25.42-19.862    c-1.456-5.693-2.246,1.674,18.103-91.881H156.008z M52.909,288.467c-11.455-4.837-18.432-18.662-13.318-31.914    c3.257-8.443,9.177-23.812,19.972-51.796c6.041-15.65,21.38-26.174,38.156-26.174h9.338    c-25.451,115.658-15.517,70.952-19.451,90.157c-1.875,10.259-9.528,18.71-19.706,20.98    C62.993,290.814,57.771,290.494,52.909,288.467z M234.56,397.939h-43.312v-70.411c0-0.241,0.241-0.472,0.482-0.472h42.357    c0.241,0,0.472,0.231,0.472,0.472V397.939z M259.147,387.254c0,5.508-4.171,10.052-9.509,10.645v-70.371    c0-8.574-6.976-15.55-15.55-15.55h-42.357c-8.574,0-15.56,6.976-15.56,15.55v70.441h-97.48c-5.9,0-10.705-4.805-10.705-10.715    v-82.242c11.459-1.598,21.581-7.971,28.064-17.138c7.488,10.594,19.822,17.53,33.753,17.53c13.921,0,26.265-6.926,33.743-17.52    c16.534,23.392,51.004,23.321,67.496-0.01c6.493,9.177,16.625,15.56,28.104,17.148V387.254z M264.775,290.327    c-12.926,0-24.157-9.574-25.963-22.636l-18.837-89.107h9.66c16.846,0,32.195,10.574,38.206,26.315l19.721,51.655    C293.697,272.605,282.203,290.327,264.775,290.327z" data-original="#000000" class="active-path" data-old_color="#ffffff" fill="#ffffff"/>
	</g>
</g><g>
	<g>
		<path d="M152.922,313.435H95.447c-8.846,0-16.042,7.197-16.042,16.042v34.708c0,8.845,7.197,16.032,16.042,16.032h57.475    c8.845,0,16.042-7.187,16.042-16.032v-34.708C168.964,320.632,161.767,313.435,152.922,313.435z M152.921,365.141H95.446    c-0.513,0-0.965-0.442-0.965-0.955v-34.708c0-0.523,0.452-0.965,0.965-0.965h57.475c0.514,0,0.965,0.442,0.965,0.965    C153.453,363.651,154.791,365.141,152.921,365.141z" data-original="#000000" class="active-path" data-old_color="#ffffff" fill="#ffffff"/>
	</g>
</g><g>
	<g>
		<path d="M120.333,336.362c-3.081-2.8-7.848-2.574-10.65,0.508l-5.093,5.603c-4.423,4.866-0.895,12.61,5.577,12.61    c5.086,0,6.662-4.316,10.674-8.07C123.641,343.931,123.414,339.163,120.333,336.362z" data-original="#000000" class="active-path" data-old_color="#ffffff" fill="#ffffff"/>
	</g>
</g><g>
	<g>
		<path d="M143.272,335.645c-3.081-2.8-7.849-2.575-10.65,0.508l-10.186,11.204c-4.424,4.868-0.894,12.611,5.577,12.611    c5.483,0,6.824-4.759,15.767-13.673C146.58,343.214,146.352,338.447,143.272,335.645z" data-original="#000000" class="active-path" data-old_color="#ffffff" fill="#ffffff"/>
	</g>
</g></g> </svg>
