<?xml version="1.0"?>
<svg xmlns="http://www.w3.org/2000/svg" xmlns:xlink="http://www.w3.org/1999/xlink" version="1.1" id="venue-detail" x="0px" y="0px" viewBox="0 0 512 512" style="enable-background:new 0 0 512 512;" xml:space="preserve" ><g><g>
	<g>
		<g>
			<path d="M320,245.333c-35.292,0-64,28.708-64,64c0,35.292,28.708,64,64,64s64-28.708,64-64     C384,274.042,355.292,245.333,320,245.333z M320,352c-23.531,0-42.667-19.146-42.667-42.667     c0-23.521,19.135-42.667,42.667-42.667s42.667,19.146,42.667,42.667C362.667,332.854,343.531,352,320,352z" data-original="#000000" class="active-path" data-old_color="#ffffff" fill="#ffffff"/>
			<path d="M416,213.333h-16.271c3.717-14.118,5.604-28.415,5.604-42.667C405.333,76.563,328.771,0,234.667,0S64,76.563,64,170.667     c0,28.271,7.073,56.271,20.49,81.104L225.333,506.5c1.875,3.396,5.448,5.5,9.333,5.5c3.885,0,7.458-2.104,9.333-5.5     l55.938-101.167H416c17.646,0,32-14.354,32-32v-128C448,227.688,433.646,213.333,416,213.333z M234.667,479.292l-131.458-237.75     c-11.698-21.646-17.875-46.146-17.875-70.875c0-82.333,66.99-149.333,149.333-149.333S384,88.333,384,170.667     c0,13.826-2.522,27.697-6.551,41.419c-1.016-0.509-2.014-1.072-2.824-1.878l-8.833-8.833c-6.042-6.042-14.083-9.375-22.625-9.375     h-26.284c1.889-7.026,3.117-14.133,3.117-21.333c0-47.063-38.281-85.333-85.333-85.333c-47.052,0-85.333,38.271-85.333,85.333     c0,30.506,16.607,58.436,42.776,73.587c-0.013,0.367-0.109,0.71-0.109,1.079v128c0,17.646,14.354,32,32,32h51.559     L234.667,479.292z M298.667,170.667c0,7.284-1.72,14.484-4.357,21.579c-7.581,0.596-14.665,3.693-20.102,9.129l-8.833,8.833     c-1.99,1.979-4.74,3.125-7.542,3.125H224c-9.568,0-18.068,4.306-23.938,10.983c-18.109-11.668-29.396-31.837-29.396-53.65     c0-35.292,28.708-64,64-64C269.958,106.667,298.667,135.375,298.667,170.667z M426.667,373.333     c0,5.875-4.781,10.667-10.667,10.667H224c-5.885,0-10.667-4.792-10.667-10.667v-128c0-5.875,4.781-10.667,10.667-10.667h33.833     c8.542,0,16.583-3.333,22.625-9.375l8.833-8.833c1.99-1.979,4.74-3.125,7.542-3.125h46.333c2.802,0,5.552,1.146,7.542,3.125     l8.833,8.833c6.042,6.042,14.083,9.375,22.625,9.375H416c5.885,0,10.667,4.792,10.667,10.667V373.333z" data-original="#000000" class="active-path" data-old_color="#ffffff" fill="#ffffff"/>
		</g>
	</g>
</g></g> </svg>
